# xmcd
#
# Track frame offsets:
#	150
#	15750
#	31377
#	49447
#	67367
#	82580
#	97280
#	114077
#	127247
#	138967
#
# Disc length: 2127 seconds
#
# Revision: 5
# Processed by: cddbd v1.5.2PL0 Copyright (c) Steve Scherf et al.
# Submitted via: EZCDAudioConverter 6.0.2.1
#
DISCID=84084d0a
DTITLE=Sherrié Austin - Words
DYEAR=1997
DGENRE=Country
TTITLE0=Lucky In Love
TTITLE1=Innocent Man
TTITLE2=One Solitary Tear
TTITLE3=Trouble In Paradise
TTITLE4=That's No Way To Break A Heart
TTITLE5=I Want To Fall In Love (So Hard It Hurts)
TTITLE6=Words
TTITLE7=Tenderly
TTITLE8=Put Your Heart Into It
TTITLE9=You Keep On Lovin' Me
EXTD=
EXTT0=
EXTT1=
EXTT2=
EXTT3=
EXTT4=
EXTT5=
EXTT6=
EXTT7=
EXTT8=
EXTT9=
PLAYORDER=
